<?xml version="1.0" encoding="UTF-8" standalone="no"?>
<svg xmlns="http://www.w3.org/2000/svg" xmlns:xlink="http://www.w3.org/1999/xlink" width="40px" height="40px" viewBox="0 0 40 40" version="1.1"><title>Delighted Cool</title><desc>Your unique vanillicon is crafted with love by the team at vanillaforums.com.</desc><defs/><g id="vanillicon" stroke="none" stroke-width="1" fill="none" fill-rule="evenodd"><rect id="background" fill="#DCA48D" x="-2" y="-2" width="44" height="44"/><g id="avatar" transform="rotate(-26, 20, 20) translate(3.000000, 3.000000)"><circle id="body" fill="#E0F4BC" cx="17" cy="17" r="16"/><g id="eyes" transform="translate(2.000000, 9.000000)" fill="#454269"><path d="M4.93809112,3.95697555 C4.32394617,5.04302166 3.40513479,5.70776665 2.88663043,5.44198321 C2.36842682,5.17534056 2.44602202,4.0795567 3.06016698,2.993797 C3.67461269,1.90775089 4.59312332,1.24271949 5.11162768,1.50878933 C5.63013204,1.77543198 5.55253684,2.87121584 4.93809112,3.95697555 L4.93809112,3.95697555 Z M13.9030435,2.95112272 C13.3959679,1.14161868 11.2338288,-0.13316804 7.95167215,0.0421115531 C2.31609518,0.342836346 2,2.50089474 2,5.53420548 C2,8.56694342 4.52815989,11.026013 6.16096742,11.026013 C10.1637369,11.026013 14.7250113,5.88190063 13.9030435,2.95112272 L13.9030435,2.95112272 Z" id="Stroke-3"/><path d="M17,2 L12.5,2 L10.5,0.5 L19,0.5 L17,2 Z" id="Fill-5"/><path d="M19.2292878,3.43675322 C18.6151394,4.52308574 17.6966237,5.18725793 17.1781165,4.9217609 C16.6596092,4.65511825 16.7372049,3.55962078 17.3513532,2.47357467 C17.9658023,1.38781495 18.884318,0.722783551 19.403126,0.988853393 C19.9213325,1.25520964 19.8437369,2.35099351 19.2292878,3.43675322 L19.2292878,3.43675322 Z M22.0485957,0.0419998968 C18.7664208,-0.133279698 16.6042697,1.14150703 16.0968905,2.95129748 C15.275219,5.88178901 19.8365187,11.0259014 23.8393103,11.0259014 C25.4721269,11.0259014 28,8.56683181 28,5.53409386 C28,2.5007831 27.6842038,0.342724691 22.0485957,0.0419998968 L22.0485957,0.0419998968 Z" id="Stroke-9"/><path d="M27,5 L30,5 L30,3 L27,3 L27,5 Z" id="Fill-10"/><path d="M0,5 L2.5,5 L2.5,3 L0,3 L0,5 Z" id="Fill-11"/><path d="M15,2.5 C13.9208932,2.5 13.1655273,3.36560654 13.1655273,4.5 L13.8878174,4.5 C13.8878174,3.93220642 14.4598117,3.5 15,3.5 C15.5867047,3.5 16.1126099,3.86930136 16.1126099,4.5 L16.8092651,4.5 C16.8092651,3.29036902 16.1154762,2.5 15,2.5 Z" id="Stroke-7"/></g><g id="mouth" transform="translate(7.000000, 22)" fill="#454269"><path d="M18.662178,2.27373675e-13 L1.33782195,2.27373675e-13 C0.567648897,2.38031816e-13 0.0865704462,0.834059642 0.472216086,1.50072596 C2.4247624,4.87609629 6.02788849,7 10,7 C13.9721115,7 17.5752376,4.87609629 19.5277839,1.50072596 C19.9134296,0.834059642 19.4323511,2.16715534e-13 18.662178,2.27373675e-13 Z" id="mouth"/></g><path d="M34,18 C34,8.61115925 26.3888407,0 17,0 C7.61115925,0 0,8.61115925 0,18 C0,27.3888407 6.5,34 17,34 C27.5,34 34,27.3888407 34,18 Z M3,18 C3,10.0271808 9.49904295,3 17,3 C24.5009571,3 31,10.0271808 31,18 C31,25.884059 25.6829523,31 17,31 C8.31704773,31 3,25.884059 3,18 Z" id="circle" fill="#454269"/></g></g></svg>
